<svg width="703" height="703" viewBox="0 0 703 703" fill="none" xmlns="http://www.w3.org/2000/svg">
<g opacity="0.12" filter="url(#filter0_f_671_112482)">
<circle cx="351.5" cy="351.5" r="232.5" fill="white"/>
</g>
<path d="M350.969 183.435C341.346 159.462 296.167 118.19 229.418 154.06C137.231 203.6 204.602 369.308 289.687 328.791C236.509 257.886 183.227 301.448 166.111 346.517C157.491 369.213 154.462 444.77 261.325 489.845" stroke="#AD8010" stroke-width="2" stroke-dasharray="8 8"/>
<path d="M346.659 520.262C356.269 543.513 401.387 583.545 468.047 548.753C560.11 500.703 492.83 339.976 407.859 379.275C460.966 448.048 514.176 405.796 531.269 362.082C539.877 340.068 542.902 266.782 436.182 223.062" stroke="#AD8010" stroke-width="2" stroke-dasharray="8 8"/>
<rect x="252.445" y="177.523" width="192.352" height="358.471" rx="12" fill="url(#paint0_radial_671_112482)" stroke="#AD8010" stroke-width="8"/>
<path fill-rule="evenodd" clip-rule="evenodd" d="M440.8 370.285C439.997 369.771 439.136 369.321 438.222 368.946C429.992 365.562 420.577 369.492 417.194 377.722L386.152 453.243C382.769 461.474 386.698 470.888 394.928 474.271C403.159 477.654 412.573 473.725 415.956 465.494L440.8 405.054V370.285Z" fill="url(#paint1_linear_671_112482)"/>
<path d="M440.803 330.934C368.404 302.795 342.026 274.449 292.41 227.109L246.828 412.98C325.937 389.051 368.649 379.198 440.803 394.241V330.934Z" fill="url(#paint2_linear_671_112482)"/>
<ellipse cx="268.991" cy="320.102" rx="19.025" ry="96.5019" transform="rotate(14.0307 268.991 320.102)" fill="url(#paint3_linear_671_112482)"/>
<path fill-rule="evenodd" clip-rule="evenodd" d="M282.114 344.353C283.973 338.059 285.764 331.492 287.456 324.723C289.185 317.804 290.722 311.023 292.064 304.461C288.347 301.684 283.734 300.039 278.737 300.039C266.43 300.039 256.453 310.016 256.453 322.323C256.453 334.631 266.43 344.608 278.737 344.608C279.885 344.608 281.013 344.521 282.114 344.353Z" fill="url(#paint4_radial_671_112482)"/>
<path d="M161.126 409.223C176.109 413.789 191.958 405.344 196.524 390.361C201.09 375.377 192.645 359.529 177.661 354.963C162.678 350.397 146.83 358.842 142.264 373.825C137.698 388.809 146.142 404.657 161.126 409.223Z" fill="#FCF4DE"/>
<path d="M165.815 389.158C166.508 388.458 167.053 387.627 167.417 386.712C167.781 385.798 167.956 384.819 167.933 383.836L171.439 384.904L172.327 381.991C170.946 381.57 169.618 381.11 168.266 380.753C167.984 380.714 167.725 380.575 167.538 380.361C167.35 380.147 167.245 379.872 167.243 379.587C166.844 376.964 167.837 374.745 170.066 373.557C172.296 372.369 175.106 372.846 176.227 375.613C176.577 376.602 176.868 377.611 177.098 378.635C177.181 378.95 177.214 379.27 177.277 379.606L181.564 379.107C181.341 378.075 181.163 377.076 180.915 376.105C180.512 374.259 179.594 372.565 178.269 371.219C175.635 368.714 172.519 368.178 169.18 369.387C167.563 369.911 166.127 370.882 165.039 372.188C163.951 373.494 163.255 375.082 163.031 376.767C162.904 377.5 162.901 378.257 162.84 379.066L160.123 378.237L159.233 381.157C160.551 381.558 161.831 381.948 163.111 382.338C163.256 382.383 163.478 382.492 163.493 382.6C163.642 383.513 163.829 384.459 163.317 385.302C162.746 386.295 161.943 387.134 160.978 387.751C160.013 388.367 158.914 388.742 157.773 388.843L157.466 388.901L157.698 392.955C157.944 392.94 158.136 392.943 158.315 392.922C159.127 392.811 159.934 392.651 160.748 392.581C162.72 392.418 164.586 392.717 166.143 394.074C166.535 394.414 166.94 394.737 167.341 395.073C169.722 397.073 172.405 396.975 175.247 396.263C175.015 394.786 174.832 393.352 174.642 391.916C174.269 392.009 173.965 392.103 173.658 392.161C172.3 392.436 170.93 392.522 169.752 391.66C168.575 390.798 167.366 389.699 165.815 389.158Z" fill="#EDB836"/>
<path d="M162.286 405.427C157.671 404.019 153.577 401.274 150.522 397.54C147.467 393.805 145.587 389.248 145.122 384.446C144.656 379.643 145.625 374.81 147.906 370.558C150.187 366.306 153.677 362.826 157.936 360.558C162.195 358.289 167.03 357.334 171.831 357.814C176.633 358.294 181.184 360.186 184.91 363.252C188.635 366.319 191.368 370.421 192.763 375.04C194.157 379.659 194.151 384.588 192.744 389.204C190.85 395.39 186.58 400.572 180.87 403.613C175.16 406.655 168.476 407.307 162.286 405.427ZM176.274 359.526C171.811 358.168 167.046 358.163 162.581 359.513C158.116 360.863 154.151 363.506 151.188 367.109C148.225 370.712 146.397 375.113 145.934 379.754C145.472 384.396 146.397 389.071 148.591 393.187C150.786 397.304 154.152 400.677 158.263 402.881C162.374 405.085 167.047 406.02 171.69 405.568C176.333 405.116 180.738 403.298 184.347 400.343C187.957 397.388 190.609 393.429 191.969 388.967C193.786 382.982 193.154 376.52 190.212 371C187.269 365.48 182.256 361.353 176.274 359.526Z" fill="#EDB836"/>
<path d="M252.966 513.768C274.504 513.768 291.964 496.309 291.964 474.771C291.964 453.233 274.504 435.773 252.966 435.773C231.429 435.773 213.969 453.233 213.969 474.771C213.969 496.309 231.429 513.768 252.966 513.768Z" fill="#FCF4DE"/>
<path d="M266.05 486.225C266.05 485.784 266.21 485.404 266.532 485.082C266.853 484.76 267.233 484.6 267.672 484.6C268.128 484.6 268.513 484.76 268.826 485.082C269.138 485.404 269.294 485.784 269.294 486.225C269.294 486.682 269.138 487.067 268.826 487.38C268.513 487.693 268.128 487.849 267.672 487.849C267.233 487.849 266.853 487.693 266.532 487.38C266.21 487.067 266.05 486.682 266.05 486.225ZM261.994 473.225V489.474C261.994 489.914 262.155 490.295 262.476 490.617C262.797 490.938 263.177 491.099 263.616 491.099H270.917C271.356 491.099 271.736 490.938 272.057 490.617C272.379 490.295 272.539 489.914 272.539 489.474V473.225C272.539 472.785 272.379 472.404 272.057 472.083C271.736 471.761 271.356 471.601 270.917 471.601H263.616C263.177 471.601 262.797 471.761 262.476 472.083C262.155 472.404 261.994 472.785 261.994 473.225ZM231.982 473.225C231.982 474.681 232.446 475.942 233.376 477.008C233.122 477.753 232.996 478.396 232.996 478.938C232.945 480.224 233.308 481.384 234.086 482.416C233.798 483.364 233.798 484.354 234.086 485.387C234.339 486.352 234.795 487.147 235.454 487.773C235.302 489.669 235.716 491.201 236.696 492.369C237.778 493.655 239.443 494.315 241.69 494.349H244.96C246.075 494.349 247.292 494.218 248.61 493.956C249.928 493.693 250.955 493.448 251.69 493.219C252.425 492.991 253.443 492.656 254.745 492.216C256.823 491.489 258.158 491.116 258.75 491.099C259.189 491.082 259.569 490.917 259.89 490.604C260.211 490.291 260.372 489.914 260.372 489.474V473.2C260.372 472.777 260.22 472.409 259.916 472.096C259.611 471.782 259.248 471.609 258.826 471.575C258.42 471.541 257.778 471.042 256.899 470.077C256.02 469.112 255.167 468.088 254.339 467.005C253.19 465.533 252.336 464.517 251.779 463.958C251.475 463.654 251.213 463.248 250.993 462.74C250.773 462.232 250.625 461.822 250.549 461.508C250.473 461.195 250.359 460.683 250.207 459.972C250.089 459.312 249.983 458.796 249.89 458.424C249.797 458.051 249.633 457.611 249.396 457.103C249.159 456.596 248.872 456.172 248.534 455.834C248.213 455.512 247.833 455.352 247.393 455.352C246.616 455.352 245.919 455.44 245.302 455.618C244.685 455.796 244.178 456.016 243.781 456.278C243.384 456.541 243.046 456.883 242.767 457.307C242.489 457.73 242.286 458.11 242.159 458.449C242.032 458.788 241.931 459.211 241.855 459.718C241.779 460.226 241.737 460.607 241.728 460.861C241.72 461.115 241.715 461.445 241.715 461.851C241.715 462.494 241.796 463.138 241.956 463.781C242.117 464.424 242.277 464.932 242.438 465.304C242.598 465.676 242.831 466.15 243.135 466.726C243.186 466.827 243.27 466.98 243.388 467.183C243.507 467.386 243.6 467.572 243.667 467.741C243.735 467.911 243.802 468.114 243.87 468.351H236.849C235.53 468.351 234.39 468.833 233.427 469.798C232.463 470.763 231.982 471.905 231.982 473.225Z" fill="#EDB836"/>
<path d="M252.958 508.314C246.324 508.311 239.839 506.342 234.323 502.654C228.808 498.967 224.51 493.727 221.972 487.596C219.435 481.466 218.772 474.721 220.068 468.215C221.364 461.708 224.559 455.731 229.252 451.041C233.944 446.35 239.921 443.156 246.429 441.863C252.936 440.569 259.681 441.234 265.81 443.773C271.939 446.313 277.178 450.613 280.864 456.129C284.549 461.646 286.517 468.132 286.517 474.766C286.505 483.662 282.965 492.19 276.674 498.479C270.383 504.768 261.854 508.305 252.958 508.314ZM252.958 442.333C246.544 442.336 240.275 444.24 234.942 447.805C229.61 451.37 225.455 456.436 223.002 462.362C220.549 468.289 219.908 474.81 221.161 481.1C222.414 487.391 225.503 493.169 230.04 497.704C234.576 502.238 240.355 505.326 246.646 506.577C252.937 507.827 259.458 507.184 265.383 504.729C271.309 502.274 276.374 498.117 279.937 492.784C283.5 487.45 285.402 481.18 285.402 474.766C285.393 466.165 281.972 457.919 275.889 451.839C269.806 445.758 261.559 442.339 252.958 442.333Z" fill="#EDB836"/>
<path d="M442.389 247.363C460.57 247.363 475.309 232.625 475.309 214.443C475.309 196.262 460.57 181.523 442.389 181.523C424.208 181.523 409.469 196.262 409.469 214.443C409.469 232.625 424.208 247.363 442.389 247.363Z" fill="#FCF4DE"/>
<path d="M428.567 229.903C428.567 230.596 429.126 231.156 429.819 231.156H441.015V216.437H428.567V229.903ZM443.677 231.156H454.873C455.566 231.156 456.126 230.596 456.126 229.903V216.437H443.677V231.156ZM456.752 207.041H450.974C451.507 206.204 451.82 205.209 451.82 204.144C451.82 201.165 449.397 198.742 446.417 198.742C444.797 198.742 443.337 199.462 442.346 200.598C441.356 199.462 439.896 198.742 438.275 198.742C435.296 198.742 432.873 201.165 432.873 204.144C432.873 205.209 433.182 206.204 433.718 207.041H427.94C427.247 207.041 426.688 207.601 426.688 208.294V213.775H441.015V207.041H443.677V213.775H458.005V208.294C458.005 207.601 457.445 207.041 456.752 207.041ZM441.015 206.885H438.275C436.764 206.885 435.535 205.655 435.535 204.144C435.535 202.633 436.764 201.404 438.275 201.404C439.786 201.404 441.015 202.633 441.015 204.144V206.885ZM446.417 206.885H443.677V204.144C443.677 202.633 444.906 201.404 446.417 201.404C447.929 201.404 449.158 202.633 449.158 204.144C449.158 205.655 447.929 206.885 446.417 206.885Z" fill="#EDB836"/>
<path d="M442.388 242.756C436.787 242.754 431.313 241.091 426.657 237.978C422.001 234.866 418.373 230.442 416.231 225.267C414.089 220.092 413.53 214.399 414.623 208.906C415.717 203.413 418.415 198.368 422.376 194.408C426.337 190.449 431.383 187.753 436.876 186.661C442.369 185.569 448.063 186.13 453.237 188.274C458.411 190.417 462.833 194.047 465.945 198.704C469.056 203.361 470.717 208.836 470.717 214.436C470.707 221.946 467.719 229.144 462.408 234.453C457.097 239.762 449.897 242.748 442.388 242.756ZM442.388 187.058C436.973 187.06 431.681 188.667 427.18 191.677C422.679 194.686 419.171 198.963 417.1 203.966C415.03 208.969 414.489 214.473 415.546 219.783C416.604 225.094 419.212 229.971 423.041 233.799C426.871 237.627 431.749 240.234 437.06 241.289C442.37 242.345 447.875 241.802 452.877 239.73C457.879 237.657 462.154 234.148 465.162 229.646C468.17 225.144 469.776 219.851 469.776 214.436C469.768 207.176 466.88 200.215 461.745 195.082C456.61 189.949 449.649 187.063 442.388 187.058Z" fill="#EDB836"/>
<path d="M539.935 335.96C555.434 333.694 566.161 319.292 563.895 303.793C561.628 288.294 547.226 277.567 531.727 279.834C516.228 282.1 505.501 296.502 507.768 312.001C510.034 327.5 524.436 338.227 539.935 335.96Z" fill="#FCF4DE"/>
<path d="M535.613 315.822C535.941 314.894 536.078 313.909 536.017 312.927C535.956 311.945 535.697 310.985 535.256 310.105L538.883 309.575L538.442 306.561C537.014 306.77 535.617 306.921 534.242 307.176C533.97 307.261 533.676 307.245 533.415 307.131C533.154 307.018 532.942 306.814 532.819 306.558C531.338 304.356 531.289 301.925 532.798 299.899C534.307 297.873 537.052 297.105 539.247 299.129C539.986 299.874 540.679 300.663 541.324 301.49C541.534 301.739 541.701 302.015 541.901 302.292L545.565 300.011C544.922 299.172 544.335 298.345 543.696 297.573C542.544 296.076 540.991 294.935 539.218 294.284C535.767 293.143 532.72 293.988 530.217 296.506C528.978 297.67 528.094 299.162 527.667 300.807C527.241 302.453 527.289 304.186 527.806 305.805C528.004 306.522 528.324 307.208 528.615 307.965L525.804 308.376L526.245 311.396C527.608 311.197 528.932 311.003 530.256 310.81C530.406 310.788 530.653 310.791 530.713 310.883C531.238 311.645 531.811 312.421 531.708 313.402C531.615 314.543 531.248 315.645 530.638 316.614C530.028 317.584 529.194 318.392 528.206 318.97L527.953 319.154L529.893 322.72C530.109 322.602 530.284 322.523 530.437 322.428C531.124 321.981 531.785 321.491 532.491 321.081C534.205 320.091 536.02 319.566 538.008 320.128C538.508 320.268 539.012 320.388 539.517 320.52C542.524 321.313 544.908 320.078 547.175 318.221C546.335 316.985 545.557 315.767 544.773 314.549C544.475 314.792 544.24 315.007 543.987 315.19C542.876 316.019 541.674 316.681 540.241 316.404C538.808 316.127 537.246 315.65 535.613 315.822Z" fill="#EDB836"/>
<path d="M539.358 332.035C534.583 332.731 529.709 331.997 525.352 329.923C520.995 327.85 517.351 324.532 514.88 320.387C512.409 316.243 511.222 311.459 511.47 306.64C511.717 301.821 513.388 297.184 516.271 293.315C519.154 289.446 523.12 286.518 527.666 284.903C532.213 283.287 537.137 283.056 541.815 284.238C546.493 285.421 550.715 287.964 553.948 291.546C557.181 295.128 559.279 299.588 559.977 304.362C560.905 310.765 559.255 317.274 555.389 322.462C551.524 327.65 545.759 331.092 539.358 332.035ZM532.415 284.554C527.799 285.231 523.488 287.261 520.026 290.387C516.564 293.514 514.107 297.597 512.965 302.12C511.824 306.643 512.049 311.403 513.612 315.798C515.176 320.193 518.007 324.026 521.749 326.811C525.491 329.597 529.974 331.211 534.633 331.449C539.292 331.687 543.916 330.538 547.922 328.148C551.928 325.758 555.135 322.233 557.138 318.02C559.141 313.807 559.85 309.095 559.175 304.479C558.264 298.291 554.934 292.717 549.916 288.981C544.899 285.246 538.605 283.653 532.415 284.554Z" fill="#EDB836"/>
<path d="M509.441 504.594C521.022 508.811 533.827 502.841 538.044 491.261C542.26 479.68 536.291 466.874 524.71 462.658C513.13 458.442 500.324 464.411 496.108 475.992C491.891 487.572 497.861 500.378 509.441 504.594Z" fill="#FCF4DE"/>
<path d="M513.966 489.027C514.54 488.507 515.003 487.877 515.327 487.173C515.651 486.47 515.83 485.709 515.854 484.935L518.563 485.921L519.383 483.67C518.316 483.281 517.292 482.865 516.244 482.527C516.024 482.485 515.827 482.364 515.689 482.188C515.55 482.012 515.48 481.792 515.49 481.568C515.286 479.49 516.16 477.789 517.961 476.949C519.762 476.109 521.951 476.602 522.715 478.823C522.949 479.615 523.135 480.42 523.272 481.234C523.324 481.485 523.337 481.738 523.373 482.004L526.761 481.792C526.63 480.972 526.532 480.18 526.377 479.406C526.138 477.939 525.489 476.57 524.504 475.456C522.54 473.378 520.113 472.826 517.44 473.635C516.147 473.979 514.979 474.682 514.069 475.662C513.159 476.643 512.545 477.861 512.299 479.176C512.168 479.746 512.134 480.341 512.053 480.973L509.952 480.209L509.131 482.465C510.149 482.836 511.139 483.196 512.128 483.556C512.24 483.597 512.41 483.692 512.417 483.777C512.496 484.501 512.603 485.253 512.165 485.894C511.675 486.649 511.009 487.275 510.225 487.719C509.441 488.163 508.561 488.411 507.661 488.442L507.417 488.475L507.43 491.67C507.623 491.669 507.774 491.679 507.915 491.67C508.558 491.617 509.199 491.525 509.841 491.505C511.397 491.459 512.851 491.773 514.017 492.904C514.311 493.188 514.616 493.458 514.916 493.739C516.703 495.411 518.815 495.446 521.078 495.006C520.958 493.836 520.874 492.702 520.785 491.565C520.489 491.623 520.246 491.684 520.002 491.716C518.923 491.875 517.843 491.885 516.954 491.158C516.065 490.432 515.162 489.518 513.966 489.027Z" fill="#EDB836"/>
<path d="M510.506 501.664C506.939 500.364 503.838 498.036 501.594 494.973C499.351 491.911 498.065 488.252 497.901 484.459C497.737 480.666 498.701 476.91 500.672 473.665C502.642 470.42 505.531 467.832 508.972 466.229C512.413 464.625 516.252 464.078 520.004 464.657C523.756 465.235 527.253 466.913 530.051 469.478C532.85 472.044 534.825 475.381 535.726 479.069C536.628 482.757 536.416 486.629 535.117 490.196C533.369 494.977 529.797 498.869 525.183 501.019C520.569 503.169 515.291 503.401 510.506 501.664ZM523.423 466.188C519.974 464.934 516.23 464.73 512.665 465.603C509.1 466.476 505.874 468.386 503.395 471.093C500.916 473.799 499.295 477.18 498.737 480.807C498.179 484.435 498.709 488.147 500.26 491.473C501.812 494.799 504.314 497.591 507.452 499.495C510.59 501.399 514.222 502.33 517.888 502.17C521.555 502.01 525.092 500.766 528.052 498.596C531.012 496.426 533.262 493.427 534.518 489.978C536.197 485.352 535.972 480.248 533.892 475.788C531.811 471.328 528.046 467.875 523.423 466.188Z" fill="#EDB836"/>
<path d="M148.133 198.633C148.133 194.215 151.715 190.633 156.133 190.633H260.67C265.089 190.633 268.67 194.215 268.67 198.633V288.886L254.861 272.488C253.341 270.683 251.102 269.641 248.742 269.641H156.133C151.715 269.641 148.133 266.059 148.133 261.641V198.633Z" fill="url(#paint5_linear_671_112482)"/>
<rect x="160.289" y="206.844" width="96.2275" height="5.06461" rx="2.5323" fill="white"/>
<rect x="160.289" y="220.016" width="96.2275" height="5.06461" rx="2.5323" fill="white"/>
<rect x="160.289" y="233.18" width="96.2275" height="5.06461" rx="2.5323" fill="white"/>
<rect x="160.289" y="246.352" width="96.2275" height="5.06461" rx="2.5323" fill="white"/>
<path d="M163.255 455.676L162.317 453.142L161.379 455.676L160.445 458.203L157.919 459.137L155.384 460.075L157.919 461.013L160.445 461.948L161.379 464.474L162.317 467.008L163.255 464.474L164.19 461.948L166.716 461.013L169.251 460.075L166.716 459.137L164.19 458.203L163.255 455.676Z" stroke="white" stroke-width="2"/>
<path d="M170.341 157.887L169.403 155.353L168.465 157.887L167.531 160.413L165.005 161.348L162.47 162.286L165.005 163.224L167.531 164.159L168.465 166.685L169.403 169.219L170.341 166.685L171.276 164.159L173.802 163.224L176.336 162.286L173.802 161.348L171.276 160.413L170.341 157.887Z" stroke="white" stroke-width="2"/>
<path d="M504.599 215.622L503.661 213.087L502.723 215.622L501.788 218.148L499.262 219.083L496.728 220.02L499.262 220.958L501.788 221.893L502.723 224.419L503.661 226.954L504.599 224.419L505.534 221.893L508.06 220.958L510.594 220.02L508.06 219.083L505.534 218.148L504.599 215.622Z" stroke="white" stroke-width="2"/>
<path d="M540.443 411.809L539.505 409.275L538.567 411.809L537.632 414.335L535.106 415.27L532.572 416.208L535.106 417.146L537.632 418.081L538.567 420.607L539.505 423.141L540.443 420.607L541.377 418.081L543.904 417.146L546.438 416.208L543.904 415.27L541.377 414.335L540.443 411.809Z" stroke="white" stroke-width="2"/>
<defs>
<filter id="filter0_f_671_112482" x="0" y="0" width="703" height="703" filterUnits="userSpaceOnUse" color-interpolation-filters="sRGB">
<feFlood flood-opacity="0" result="BackgroundImageFix"/>
<feBlend mode="normal" in="SourceGraphic" in2="BackgroundImageFix" result="shape"/>
<feGaussianBlur stdDeviation="59.5" result="effect1_foregroundBlur_671_112482"/>
</filter>
<radialGradient id="paint0_radial_671_112482" cx="0" cy="0" r="1" gradientUnits="userSpaceOnUse" gradientTransform="translate(309.84 225.477) rotate(71.5749) scale(322.721 214.201)">
<stop stop-color="#FCF4DE"/>
<stop offset="1" stop-color="#F7E0A6"/>
</radialGradient>
<linearGradient id="paint1_linear_671_112482" x1="391.674" y1="365.353" x2="434.717" y2="532.827" gradientUnits="userSpaceOnUse">
<stop stop-color="#82AFDE"/>
<stop offset="1" stop-color="#347CC5"/>
</linearGradient>
<linearGradient id="paint2_linear_671_112482" x1="446.374" y1="477.807" x2="508.119" y2="230.48" gradientUnits="userSpaceOnUse">
<stop stop-color="#DC8F14"/>
<stop offset="0.469692" stop-color="#EDB836"/>
<stop offset="1" stop-color="#DC8F14"/>
</linearGradient>
<linearGradient id="paint3_linear_671_112482" x1="251.34" y1="320.009" x2="313.739" y2="325.297" gradientUnits="userSpaceOnUse">
<stop stop-color="#EEBD44"/>
<stop offset="1" stop-color="#D38913"/>
</linearGradient>
<radialGradient id="paint4_radial_671_112482" cx="0" cy="0" r="1" gradientUnits="userSpaceOnUse" gradientTransform="translate(266.076 317.765) rotate(-3.36631) scale(25.8752 18.1665)">
<stop stop-color="#EDB836"/>
<stop offset="1" stop-color="#DC8F14"/>
</radialGradient>
<linearGradient id="paint5_linear_671_112482" x1="191.182" y1="232.669" x2="200.092" y2="387.441" gradientUnits="userSpaceOnUse">
<stop stop-color="#82AFDE"/>
<stop offset="1" stop-color="#347CC5"/>
</linearGradient>
</defs>
</svg>
